<?xml version="1.0" encoding="UTF-8" standalone="no"?>
<!-- Created with Inkscape (http://www.inkscape.org/) -->

<svg
   xmlns:rendltx="http://NOTSET"
   xmlns:dc="http://purl.org/dc/elements/1.1/"
   xmlns:cc="http://creativecommons.org/ns#"
   xmlns:rdf="http://www.w3.org/1999/02/22-rdf-syntax-ns#"
   xmlns:svg="http://www.w3.org/2000/svg"
   xmlns="http://www.w3.org/2000/svg"
   xmlns:xlink="http://www.w3.org/1999/xlink"
   xmlns:sodipodi="http://sodipodi.sourceforge.net/DTD/sodipodi-0.dtd"
   xmlns:inkscape="http://www.inkscape.org/namespaces/inkscape"
   width="210mm"
   height="297mm"
   viewBox="0 0 210 297"
   version="1.1"
   id="svg8"
   inkscape:version="0.92.4 (5da689c313, 2019-01-14)"
   sodipodi:docname="tex-to-text.svg">
  <defs
     id="defs2" />
  <sodipodi:namedview
     id="base"
     pagecolor="#ffffff"
     bordercolor="#666666"
     borderopacity="1.0"
     inkscape:pageopacity="0.0"
     inkscape:pageshadow="2"
     inkscape:zoom="0.88916838"
     inkscape:cx="341.53749"
     inkscape:cy="509.29209"
     inkscape:document-units="mm"
     inkscape:current-layer="ltx-render-layer"
     showgrid="false"
     inkscape:window-width="1920"
     inkscape:window-height="1137"
     inkscape:window-x="1192"
     inkscape:window-y="332"
     inkscape:window-maximized="1" />
  <metadata
     id="metadata5">
    <rdf:RDF>
      <cc:Work
         rdf:about="">
        <dc:format>image/svg+xml</dc:format>
        <dc:type
           rdf:resource="http://purl.org/dc/dcmitype/StillImage" />
        <dc:title></dc:title>
      </cc:Work>
    </rdf:RDF>
  </metadata>
  <g
     inkscape:label="Ebene 1"
     inkscape:groupmode="layer"
     id="layer1" />
  <g
     inkscape:label="Rendered Latex"
     inkscape:groupmode="layer"
     id="ltx-render-layer"
     rendltx:preamble="C:\users\hofmann\desktop\inkscape-preambel.tex"
     rendltx:packages="amsmath,amssymb"
     rendltx:scale="1.0"
     rendltx:depth="0"
     rendltx:fontsize="16"
     rendltx:newline="False"
     rendltx:math="False">
    <text
       xml:space="preserve"
       style="font-style:normal;font-variant:normal;font-weight:normal;font-stretch:normal;font-size:5.64444447px;line-height:1.25;font-family:'Iwona Cond';-inkscape-font-specification:'Iwona Cond, Normal';font-variant-ligatures:normal;font-variant-caps:normal;font-variant-numeric:normal;font-feature-settings:normal;text-align:start;letter-spacing:0px;word-spacing:0px;writing-mode:lr-tb;text-anchor:start;fill:#000000;fill-opacity:1;stroke:none;stroke-width:0.26458332"
       x="30.201456"
       y="117.92941"
       id="text1004"><tspan
         sodipodi:role="line"
         id="tspan1002"
         x="30.201456"
         y="117.92941"
         style="stroke-width:0.26458332">$\dot W_\text{net}=30\,\text{MW}$</tspan></text>
    <text
       id="text1050"
       y="157.71577"
       x="35.529758"
       style="font-style:normal;font-variant:normal;font-weight:normal;font-stretch:normal;font-size:5.64444447px;line-height:1.25;font-family:'Iwona Cond';-inkscape-font-specification:'Iwona Cond, Normal';font-variant-ligatures:normal;font-variant-caps:normal;font-variant-numeric:normal;font-feature-settings:normal;text-align:start;letter-spacing:0px;word-spacing:0px;writing-mode:lr-tb;text-anchor:start;fill:#000000;fill-opacity:1;stroke:none;stroke-width:0.26458332"
       xml:space="preserve"><tspan
         style="stroke-width:0.26458332"
         y="157.71577"
         x="35.529758"
         id="tspan1048"
         sodipodi:role="line">$\Delta \dot H$</tspan></text>
    <g
       id="lx-text1004"
       transform="matrix(0.352778,0.000000,0.000000,0.352778,29.132378,133.431050)">
      <defs
         id="defs2726">
        <g
           id="g2724">
          <symbol
             id="lx-text1004-glyph0-0"
             overflow="visible">
            <path
               id="path2682"
               d=""
               style="stroke:none;" />
          </symbol>
          <symbol
             id="lx-text1004-glyph0-1"
             overflow="visible">
            <path
               id="path2685"
               d="M 2.625 -9.625 C 2.625 -10.015625 2.328125 -10.28125 2 -10.28125 C 1.609375 -10.28125 1.34375 -9.984375 1.34375 -9.625 C 1.34375 -9.25 1.640625 -8.96875 1.96875 -8.96875 C 2.359375 -8.96875 2.625 -9.28125 2.625 -9.625 Z M 2.625 -9.625 "
               style="stroke:none;" />
          </symbol>
          <symbol
             id="lx-text1004-glyph0-2"
             overflow="visible">
            <path
               id="path2688"
               d="M 10.71875 -5.390625 C 10.71875 -5.671875 10.453125 -5.671875 10.1875 -5.671875 L 1.28125 -5.671875 C 1 -5.671875 0.734375 -5.671875 0.734375 -5.390625 C 0.734375 -5.109375 0.96875 -5.109375 1.21875 -5.109375 L 10.25 -5.109375 C 10.484375 -5.109375 10.71875 -5.109375 10.71875 -5.390625 Z M 10.71875 -2.5625 C 10.71875 -2.84375 10.484375 -2.84375 10.25 -2.84375 L 1.21875 -2.84375 C 0.96875 -2.84375 0.734375 -2.84375 0.734375 -2.5625 C 0.734375 -2.28125 1 -2.28125 1.28125 -2.28125 L 10.1875 -2.28125 C 10.453125 -2.28125 10.71875 -2.28125 10.71875 -2.5625 Z M 10.71875 -2.5625 "
               style="stroke:none;" />
          </symbol>
          <symbol
             id="lx-text1004-glyph0-3"
             overflow="visible">
            <path
               id="path2691"
               d="M 6.78125 -2.75 C 6.78125 -4.296875 5.5 -5.421875 3.984375 -5.59375 C 5.203125 -5.84375 6.359375 -6.9375 6.359375 -8.390625 C 6.359375 -9.625 5.09375 -10.53125 3.671875 -10.53125 C 2.21875 -10.53125 0.9375 -9.640625 0.9375 -8.375 C 0.9375 -7.8125 1.359375 -7.71875 1.5625 -7.71875 C 1.890625 -7.71875 2.1875 -7.921875 2.1875 -8.328125 C 2.1875 -8.75 1.890625 -8.953125 1.5625 -8.953125 C 1.5 -8.953125 1.421875 -8.953125 1.359375 -8.921875 C 1.8125 -9.984375 3.078125 -10.171875 3.640625 -10.171875 C 4.1875 -10.171875 5.25 -9.890625 5.25 -8.375 C 5.25 -7.921875 5.1875 -7.125 4.640625 -6.421875 C 4.15625 -5.796875 3.625 -5.765625 3.09375 -5.71875 C 3.015625 -5.71875 2.640625 -5.6875 2.578125 -5.6875 C 2.46875 -5.671875 2.40625 -5.65625 2.40625 -5.546875 C 2.40625 -5.4375 2.421875 -5.421875 2.734375 -5.421875 L 3.515625 -5.421875 C 4.9375 -5.421875 5.5625 -4.1875 5.5625 -2.765625 C 5.5625 -0.859375 4.546875 -0.125 3.625 -0.125 C 2.765625 -0.125 1.40625 -0.546875 0.96875 -1.765625 C 1.046875 -1.734375 1.125 -1.734375 1.21875 -1.734375 C 1.59375 -1.734375 1.875 -2 1.875 -2.40625 C 1.875 -2.875 1.53125 -3.078125 1.21875 -3.078125 C 0.9375 -3.078125 0.53125 -2.953125 0.53125 -2.359375 C 0.53125 -0.890625 1.953125 0.25 3.65625 0.25 C 5.421875 0.25 6.78125 -1.125 6.78125 -2.75 Z M 6.78125 -2.75 "
               style="stroke:none;" />
          </symbol>
          <symbol
             id="lx-text1004-glyph0-4"
             overflow="visible">
            <path
               id="path2694"
               d="M 6.6875 -5.109375 C 6.6875 -6.09375 6.671875 -7.75 6.015625 -9.015625 C 5.421875 -10.140625 4.484375 -10.53125 3.65625 -10.53125 C 2.890625 -10.53125 1.90625 -10.1875 1.3125 -9.03125 C 0.671875 -7.84375 0.609375 -6.359375 0.609375 -5.109375 C 0.609375 -4.203125 0.625 -2.828125 1.109375 -1.609375 C 1.796875 0.03125 3.03125 0.25 3.65625 0.25 C 4.390625 0.25 5.5 -0.046875 6.15625 -1.5625 C 6.625 -2.65625 6.6875 -3.953125 6.6875 -5.109375 Z M 5.671875 -5.296875 C 5.671875 -4.25 5.671875 -2.984375 5.484375 -2.046875 C 5.140625 -0.296875 4.203125 0 3.65625 0 C 2.625 0 2.03125 -0.875 1.796875 -2.09375 C 1.625 -3.03125 1.625 -4.40625 1.625 -5.296875 C 1.625 -6.515625 1.625 -7.53125 1.828125 -8.515625 C 2.140625 -9.859375 3.03125 -10.28125 3.65625 -10.28125 C 4.296875 -10.28125 5.140625 -9.84375 5.453125 -8.546875 C 5.65625 -7.640625 5.671875 -6.5625 5.671875 -5.296875 Z M 5.671875 -5.296875 "
               style="stroke:none;" />
          </symbol>
          <symbol
             id="lx-text1004-glyph1-0"
             overflow="visible">
            <path
               id="path2697"
               d=""
               style="stroke:none;" />
          </symbol>
          <symbol
             id="lx-text1004-glyph1-1"
             overflow="visible">
            <path
               id="path2700"
               d="M 16.359375 -10.703125 C 16.359375 -10.890625 16.203125 -10.890625 16.15625 -10.890625 C 16.15625 -10.890625 16.015625 -10.859375 14.96875 -10.859375 C 14.484375 -10.859375 14 -10.890625 13.53125 -10.890625 C 13.4375 -10.890625 13.25 -10.890625 13.25 -10.578125 C 13.25 -10.4375 13.375 -10.421875 13.46875 -10.421875 C 13.78125 -10.40625 14.296875 -10.3125 14.296875 -9.8125 C 14.296875 -9.609375 14.234375 -9.5 14.078125 -9.234375 L 9.71875 -1.609375 L 9.140625 -9.90625 C 9.140625 -10.109375 9.328125 -10.40625 10.21875 -10.421875 C 10.421875 -10.421875 10.578125 -10.421875 10.578125 -10.71875 C 10.578125 -10.890625 10.421875 -10.890625 10.34375 -10.890625 C 9.78125 -10.890625 9.203125 -10.859375 8.625 -10.859375 L 7.796875 -10.859375 C 7.546875 -10.859375 7.265625 -10.890625 7.03125 -10.890625 C 6.9375 -10.890625 6.734375 -10.890625 6.734375 -10.578125 C 6.734375 -10.421875 6.859375 -10.421875 7.125 -10.421875 C 7.859375 -10.421875 7.859375 -10.40625 7.921875 -9.4375 L 7.96875 -8.859375 L 3.84375 -1.609375 L 3.25 -9.828125 C 3.25 -10.015625 3.25 -10.40625 4.328125 -10.421875 C 4.515625 -10.421875 4.6875 -10.421875 4.6875 -10.703125 C 4.6875 -10.890625 4.546875 -10.890625 4.453125 -10.890625 C 3.890625 -10.890625 3.296875 -10.859375 2.71875 -10.859375 L 1.890625 -10.859375 C 1.65625 -10.859375 1.375 -10.890625 1.125 -10.890625 C 1.03125 -10.890625 0.84375 -10.890625 0.84375 -10.578125 C 0.84375 -10.421875 0.96875 -10.421875 1.203125 -10.421875 C 1.9375 -10.421875 1.953125 -10.328125 2 -9.8125 L 2.6875 -0.03125 C 2.703125 0.234375 2.71875 0.328125 2.921875 0.328125 C 3.078125 0.328125 3.109375 0.265625 3.25 0.03125 L 8 -8.265625 L 8.59375 -0.03125 C 8.609375 0.234375 8.625 0.328125 8.8125 0.328125 C 8.96875 0.328125 9.015625 0.25 9.140625 0.03125 L 14.390625 -9.109375 C 14.765625 -9.734375 15.109375 -10.328125 16.0625 -10.421875 C 16.203125 -10.4375 16.359375 -10.453125 16.359375 -10.703125 Z M 16.359375 -10.703125 "
               style="stroke:none;" />
          </symbol>
          <symbol
             id="lx-text1004-glyph2-0"
             overflow="visible">
            <path
               id="path2703"
               d=""
               style="stroke:none;" />
          </symbol>
          <symbol
             id="lx-text1004-glyph2-1"
             overflow="visible">
            <path
               id="path2706"
               d="M 5.8125 0 L 5.8125 -0.328125 C 5.25 -0.328125 4.96875 -0.328125 4.96875 -0.65625 L 4.96875 -2.71875 C 4.96875 -3.75 4.96875 -4.0625 4.703125 -4.421875 C 4.390625 -4.859375 3.859375 -4.921875 3.484375 -4.921875 C 2.40625 -4.921875 1.96875 -4 1.890625 -3.765625 L 1.875 -3.765625 L 1.875 -4.921875 L 0.359375 -4.796875 L 0.359375 -4.46875 C 1.109375 -4.46875 1.203125 -4.390625 1.203125 -3.84375 L 1.203125 -0.828125 C 1.203125 -0.328125 1.078125 -0.328125 0.359375 -0.328125 L 0.359375 0 C 0.640625 -0.015625 1.25 -0.015625 1.5625 -0.015625 C 1.890625 -0.015625 2.484375 -0.015625 2.78125 0 L 2.78125 -0.328125 C 2.0625 -0.328125 1.9375 -0.328125 1.9375 -0.828125 L 1.9375 -2.90625 C 1.9375 -4.078125 2.703125 -4.703125 3.390625 -4.703125 C 4.078125 -4.703125 4.234375 -4.125 4.234375 -3.453125 L 4.234375 -0.828125 C 4.234375 -0.328125 4.109375 -0.328125 3.390625 -0.328125 L 3.390625 0 C 3.6875 -0.015625 4.28125 -0.015625 4.59375 -0.015625 C 4.921875 -0.015625 5.515625 -0.015625 5.8125 0 Z M 5.8125 0 "
               style="stroke:none;" />
          </symbol>
          <symbol
             id="lx-text1004-glyph2-2"
             overflow="visible">
            <path
               id="path2709"
               d="M 4.546875 -1.328125 C 4.546875 -1.390625 4.484375 -1.4375 4.421875 -1.4375 C 4.328125 -1.4375 4.3125 -1.390625 4.28125 -1.328125 C 4 -0.390625 3.25 -0.140625 2.78125 -0.140625 C 2.3125 -0.140625 1.1875 -0.453125 1.1875 -2.375 L 1.1875 -2.59375 L 4.265625 -2.59375 C 4.515625 -2.59375 4.546875 -2.59375 4.546875 -2.796875 C 4.546875 -3.921875 3.9375 -4.96875 2.59375 -4.96875 C 1.3125 -4.96875 0.328125 -3.828125 0.328125 -2.4375 C 0.328125 -0.96875 1.46875 0.109375 2.71875 0.109375 C 4.03125 0.109375 4.546875 -1.09375 4.546875 -1.328125 Z M 3.84375 -2.796875 L 1.1875 -2.796875 C 1.28125 -4.546875 2.265625 -4.75 2.578125 -4.75 C 3.765625 -4.75 3.84375 -3.171875 3.84375 -2.796875 Z M 3.84375 -2.796875 "
               style="stroke:none;" />
          </symbol>
          <symbol
             id="lx-text1004-glyph2-3"
             overflow="visible">
            <path
               id="path2712"
               d="M 3.640625 -1.390625 L 3.640625 -2.015625 L 3.390625 -2.015625 L 3.390625 -1.40625 C 3.390625 -0.609375 3.0625 -0.140625 2.640625 -0.140625 C 1.875 -0.140625 1.875 -1.171875 1.875 -1.359375 L 1.875 -4.484375 L 3.453125 -4.484375 L 3.453125 -4.8125 L 1.875 -4.8125 L 1.875 -6.859375 L 1.625 -6.859375 C 1.625 -5.8125 1.21875 -4.734375 0.203125 -4.703125 L 0.203125 -4.484375 L 1.15625 -4.484375 L 1.15625 -1.390625 C 1.15625 -0.140625 1.96875 0.109375 2.5625 0.109375 C 3.265625 0.109375 3.640625 -0.578125 3.640625 -1.390625 Z M 3.640625 -1.390625 "
               style="stroke:none;" />
          </symbol>
          <symbol
             id="lx-text1004-glyph3-0"
             overflow="visible">
            <path
               id="path2715"
               d=""
               style="stroke:none;" />
          </symbol>
          <symbol
             id="lx-text1004-glyph3-1"
             overflow="visible">
            <path
               id="path2718"
               d="M 12.6875 0 L 12.6875 -0.421875 C 11.59375 -0.421875 11.40625 -0.421875 11.40625 -1.125 L 11.40625 -9.75 C 11.40625 -10.46875 11.59375 -10.46875 12.6875 -10.46875 L 12.6875 -10.890625 L 10.65625 -10.890625 C 10.328125 -10.890625 10.3125 -10.875 10.21875 -10.625 L 6.78125 -1.296875 L 3.328125 -10.625 C 3.234375 -10.875 3.21875 -10.890625 2.890625 -10.890625 L 0.84375 -10.890625 L 0.84375 -10.46875 C 1.9375 -10.46875 2.125 -10.46875 2.125 -9.75 L 2.125 -1.5625 C 2.125 -1.15625 2.125 -0.421875 0.84375 -0.421875 L 0.84375 0 C 1.21875 -0.03125 1.875 -0.03125 2.28125 -0.03125 C 2.671875 -0.03125 3.34375 -0.03125 3.71875 0 L 3.71875 -0.421875 C 2.4375 -0.421875 2.4375 -1.15625 2.4375 -1.5625 L 2.4375 -10.40625 L 2.453125 -10.40625 L 6.203125 -0.25 C 6.265625 -0.09375 6.296875 0 6.421875 0 C 6.546875 0 6.578125 -0.09375 6.640625 -0.25 L 10.421875 -10.484375 L 10.4375 -10.484375 L 10.4375 -1.125 C 10.4375 -0.421875 10.265625 -0.421875 9.171875 -0.421875 L 9.171875 0 C 9.59375 -0.03125 10.453125 -0.03125 10.921875 -0.03125 C 11.375 -0.03125 12.25 -0.03125 12.6875 0 Z M 12.6875 0 "
               style="stroke:none;" />
          </symbol>
          <symbol
             id="lx-text1004-glyph3-2"
             overflow="visible">
            <path
               id="path2721"
               d="M 15.0625 -10.46875 L 15.0625 -10.890625 L 13.953125 -10.859375 C 13.546875 -10.859375 12.84375 -10.859375 12.46875 -10.890625 L 12.46875 -10.46875 C 13.1875 -10.453125 13.484375 -10.0625 13.484375 -9.671875 C 13.484375 -9.5625 13.46875 -9.5 13.40625 -9.328125 L 10.9375 -1.453125 L 8.328125 -9.734375 C 8.28125 -9.890625 8.265625 -9.96875 8.265625 -10.03125 C 8.265625 -10.46875 8.96875 -10.46875 9.28125 -10.46875 L 9.28125 -10.890625 C 8.8125 -10.859375 8.015625 -10.859375 7.515625 -10.859375 C 7.125 -10.859375 6.40625 -10.859375 6.046875 -10.890625 L 6.046875 -10.46875 C 6.78125 -10.46875 6.96875 -10.421875 7.125 -10.140625 C 7.1875 -10 7.4375 -9.171875 7.4375 -9.109375 C 7.4375 -9.046875 7.40625 -8.953125 7.390625 -8.90625 L 5.046875 -1.46875 L 2.453125 -9.734375 C 2.375 -9.96875 2.375 -10.03125 2.375 -10.03125 C 2.375 -10.46875 3.078125 -10.46875 3.390625 -10.46875 L 3.390625 -10.890625 C 2.9375 -10.859375 2.140625 -10.859375 1.640625 -10.859375 C 1.234375 -10.859375 0.53125 -10.859375 0.140625 -10.890625 L 0.140625 -10.46875 C 1.09375 -10.46875 1.15625 -10.375 1.328125 -9.859375 L 4.4375 -0.015625 C 4.515625 0.21875 4.515625 0.25 4.65625 0.25 C 4.78125 0.25 4.828125 0.21875 4.890625 0 L 7.609375 -8.640625 L 10.3125 0 C 10.375 0.21875 10.421875 0.25 10.546875 0.25 C 10.6875 0.25 10.6875 0.21875 10.78125 -0.015625 L 13.75 -9.453125 C 13.890625 -9.875 14.140625 -10.4375 15.0625 -10.46875 Z M 15.0625 -10.46875 "
               style="stroke:none;" />
          </symbol>
        </g>
      </defs>
      <g
         id="lx-text1004-surface1">
        <g
           id="g2730"
           style="fill:rgb(0%,0%,0%);fill-opacity:1;">
          <use
             id="use2728"
             y="-4.03"
             x="6.462"
             xlink:href="#lx-text1004-glyph0-1" />
        </g>
        <g
           id="g2734"
           style="fill:rgb(0%,0%,0%);fill-opacity:1;">
          <use
             id="use2732"
             y="0.0"
             x="0.0"
             xlink:href="#lx-text1004-glyph1-1" />
        </g>
        <g
           id="g2742"
           style="fill:rgb(0%,0%,0%);fill-opacity:1;">
          <use
             id="use2736"
             y="2.391"
             x="14.736"
             xlink:href="#lx-text1004-glyph2-1" />
          <use
             id="use2738"
             y="2.391"
             x="20.806006"
             xlink:href="#lx-text1004-glyph2-2" />
          <use
             id="use2740"
             y="2.391"
             x="25.662012"
             xlink:href="#lx-text1004-glyph2-3" />
        </g>
        <g
           id="g2746"
           style="fill:rgb(0%,0%,0%);fill-opacity:1;">
          <use
             id="use2744"
             y="0.0"
             x="34.836"
             xlink:href="#lx-text1004-glyph0-2" />
        </g>
        <g
           id="g2752"
           style="fill:rgb(0%,0%,0%);fill-opacity:1;">
          <use
             id="use2748"
             y="0.0"
             x="50.742726"
             xlink:href="#lx-text1004-glyph0-3" />
          <use
             id="use2750"
             y="0.0"
             x="58.052901"
             xlink:href="#lx-text1004-glyph0-4" />
        </g>
        <g
           id="g2758"
           style="fill:rgb(0%,0%,0%);fill-opacity:1;">
          <use
             id="use2754"
             y="0.0"
             x="68.016"
             xlink:href="#lx-text1004-glyph3-1" />
          <use
             id="use2756"
             y="0.0"
             x="81.56517"
             xlink:href="#lx-text1004-glyph3-2" />
        </g>
      </g>
    </g>
    <g
       id="lx-text1050"
       transform="matrix(0.352778,0,0,0.352778,37.816695,168.7576)">
      <defs
         id="defs2779">
        <g
           id="g2777">
          <symbol
             id="lx-text1050-glyph0-0"
             overflow="visible"
             style="overflow:visible">
            <path
               id="path2762"
               d=""
               style="stroke:none"
               inkscape:connector-curvature="0" />
          </symbol>
          <symbol
             id="lx-text1050-glyph0-1"
             overflow="visible"
             style="overflow:visible">
            <path
               id="path2765"
               d="m 11.703125,-0.078125 c 0,0 -0.0625,-0.15625 -0.07813,-0.1875 L 6.46875,-11 c -0.125,-0.265625 -0.1875,-0.265625 -0.3125,-0.265625 -0.203125,0 -0.21875,0.03125 -0.328125,0.25 l -5.15625,10.75 C 0.65625,-0.234375 0.59375,-0.078125 0.59375,-0.078125 0.59375,-0.015625 0.609375,0 0.890625,0 h 10.5 c 0.296875,0 0.3125,-0.015625 0.3125,-0.078125 z m -1.53125,-0.8125 H 1.328125 L 5.75,-10.0625 Z m 0,0"
               style="stroke:none"
               inkscape:connector-curvature="0" />
          </symbol>
          <symbol
             id="lx-text1050-glyph0-2"
             overflow="visible"
             style="overflow:visible">
            <path
               id="path2768"
               d="m 2.625,-9.625 c 0,-0.390625 -0.296875,-0.65625 -0.625,-0.65625 -0.390625,0 -0.65625,0.296875 -0.65625,0.65625 0,0.375 0.296875,0.65625 0.625,0.65625 0.390625,0 0.65625,-0.3125 0.65625,-0.65625 z m 0,0"
               style="stroke:none"
               inkscape:connector-curvature="0" />
          </symbol>
          <symbol
             id="lx-text1050-glyph1-0"
             overflow="visible"
             style="overflow:visible">
            <path
               id="path2771"
               d=""
               style="stroke:none"
               inkscape:connector-curvature="0" />
          </symbol>
          <symbol
             id="lx-text1050-glyph1-1"
             overflow="visible"
             style="overflow:visible">
            <path
               id="path2774"
               d="m 13.671875,-10.703125 c 0,-0.1875 -0.140625,-0.1875 -0.234375,-0.1875 -0.28125,0 -0.625,0.03125 -0.921875,0.03125 H 10.625 c -0.296875,0 -0.625,-0.03125 -0.9375,-0.03125 -0.109375,0 -0.296875,0 -0.296875,0.3125 0,0.15625 0.109375,0.15625 0.40625,0.15625 0.96875,0 0.96875,0.125 0.96875,0.296875 0,0 0,0.125 -0.07813,0.375 L 9.71875,-5.890625 H 4.90625 L 5.859375,-9.71875 c 0.15625,-0.546875 0.1875,-0.703125 1.3125,-0.703125 0.28125,0 0.453125,0 0.453125,-0.28125 0,-0.1875 -0.15625,-0.1875 -0.25,-0.1875 -0.28125,0 -0.625,0.03125 -0.921875,0.03125 h -1.875 c -0.3125,0 -0.640625,-0.03125 -0.9375,-0.03125 -0.125,0 -0.3125,0 -0.3125,0.3125 0,0.15625 0.109375,0.15625 0.421875,0.15625 0.953125,0 0.953125,0.125 0.953125,0.296875 0,0 0,0.125 -0.0625,0.375 l -2.15625,8.578125 C 2.34375,-0.625 2.3125,-0.46875 1.21875,-0.46875 c -0.375,0 -0.484375,0 -0.484375,0.3125 C 0.734375,0 0.90625,0 0.953125,0 1.25,0 1.578125,-0.03125 1.875,-0.03125 H 3.765625 C 4.0625,-0.03125 4.40625,0 4.703125,0 4.828125,0 5,0 5,-0.296875 5,-0.46875 4.859375,-0.46875 4.625,-0.46875 c -0.96875,0 -0.96875,-0.125 -0.96875,-0.28125 0,0 0,-0.125 0.03125,-0.25 L 4.78125,-5.4375 H 9.609375 L 8.5,-0.953125 c -0.1875,0.46875 -0.4375,0.46875 -1.375,0.484375 -0.1875,0 -0.328125,0 -0.328125,0.3125 C 6.796875,0 6.96875,0 7.015625,0 c 0.28125,0 0.625,-0.03125 0.921875,-0.03125 h 1.875 C 10.125,-0.03125 10.453125,0 10.765625,0 c 0.125,0 0.296875,0 0.296875,-0.296875 0,-0.171875 -0.140625,-0.171875 -0.390625,-0.171875 -0.96875,0 -0.96875,-0.125 -0.96875,-0.28125 0,0 0,-0.125 0.03125,-0.25 l 2.1875,-8.71875 c 0.140625,-0.546875 0.171875,-0.703125 1.3125,-0.703125 0.28125,0 0.4375,0 0.4375,-0.28125 z m 0,0"
               style="stroke:none"
               inkscape:connector-curvature="0" />
          </symbol>
        </g>
      </defs>
      <g
         id="lx-text1050-surface1">
        <g
           id="g2783"
           style="fill:#000000;fill-opacity:1">
          <use
             id="use2781"
             y="0"
             x="0"
             xlink:href="#lx-text1050-glyph0-1"
             width="100%"
             height="100%" />
        </g>
        <g
           id="g2787"
           style="fill:#000000;fill-opacity:1">
          <use
             id="use2785"
             y="-4.0300002"
             x="18.267"
             xlink:href="#lx-text1050-glyph0-2"
             width="100%"
             height="100%" />
        </g>
        <g
           id="g2791"
           style="fill:#000000;fill-opacity:1">
          <use
             id="use2789"
             y="0"
             x="12.308"
             xlink:href="#lx-text1050-glyph1-1"
             width="100%"
             height="100%" />
        </g>
      </g>
    </g>
  </g>
</svg>
